<svg width="0" height="0" class="hidden">
  <symbol xmlns="http://www.w3.org/2000/svg" viewBox="0 0 19 20" id="music">
    <title>song-notes</title>
    <g fill="#001D5D">
      <path d="M3.846 16.923A3.044 3.044 0 01.913 15c-.09.247-.14.507-.144.77a2.908 2.908 0 003.077 2.692 2.908 2.908 0 003.077-2.693A2.355 2.355 0 006.78 15a3.044 3.044 0 01-2.934 1.923zm10.769-3.077a3.044 3.044 0 01-2.933-1.923c-.09.247-.139.507-.144.77a2.908 2.908 0 003.077 2.692 2.908 2.908 0 003.077-2.693 2.355 2.355 0 00-.143-.769 3.044 3.044 0 01-2.934 1.923z" fill-opacity=".25"></path>
      <path d="M18.308.078a.377.377 0 00-.337-.062L7.201 3.093a.385.385 0 00-.278.37V13.71a3.98 3.98 0 00-3.077-1.403A3.67 3.67 0 000 15.769a3.67 3.67 0 003.846 3.462 3.67 3.67 0 003.846-3.46V6.83l10-2.858v6.662a3.98 3.98 0 00-3.077-1.403 3.67 3.67 0 00-3.846 3.461 3.67 3.67 0 003.846 3.462 3.67 3.67 0 003.847-3.46V.385a.384.384 0 00-.154-.307zM3.846 18.462A2.908 2.908 0 01.77 15.769a2.908 2.908 0 013.077-2.692 2.908 2.908 0 013.077 2.692 2.908 2.908 0 01-3.077 2.693zm10.77-3.077a2.908 2.908 0 01-3.078-2.693A2.908 2.908 0 0114.615 10a2.908 2.908 0 013.077 2.692 2.908 2.908 0 01-3.077 2.693zM7.691 6.03V3.753l10-2.858v2.277l-10 2.858z"></path>
    </g>
  </symbol>
  <symbol xmlns="http://www.w3.org/2000/svg" viewBox="0 0 39 39" id="playbutton">
    <title>Group 4 Copy 4</title>
    <g transform="matrix(-1 0 0 1 39 0)" fill="none" fill-rule="evenodd">
      <circle fill="#FFF" cx="19.5" cy="19.5" r="19.5"></circle>
      <path d="M14 19.5l9-4.5v9z" fill="#001D5D"></path>
    </g>
  </symbol>
  <symbol xmlns="http://www.w3.org/2000/svg" viewBox="0 0 20 20" id="records">
    <title>vynil</title>
    <g fill="#001D5D">
      <path d="M11.67.959a9.188 9.188 0 01-5.74 17.282A9.194 9.194 0 1011.67.959z" fill-opacity=".25"></path>
      <path d="M10 0C4.477 0 0 4.477 0 10s4.477 10 10 10 10-4.477 10-10A10 10 0 0010 0zm0 19.2a9.2 9.2 0 119.2-9.2 9.21 9.21 0 01-9.2 9.2z"></path>
      <path d="M12 10a2 2 0 10-4 0 2 2 0 004 0zm-3.2 0a1.2 1.2 0 112.4 0 1.2 1.2 0 01-2.4 0zm1.6-4.8a.4.4 0 00-.4-.4A5.206 5.206 0 004.8 10a.4.4 0 10.8 0A4.405 4.405 0 0110 5.6a.4.4 0 00.4-.4zm-.8 9.6c0 .22.18.4.4.4a5.206 5.206 0 005.2-5.2.4.4 0 10-.8 0 4.405 4.405 0 01-4.4 4.4.4.4 0 00-.4.4z"></path>
      <path d="M10 3.2a.4.4 0 100-.8A7.609 7.609 0 002.4 10a.4.4 0 10.8 0A6.808 6.808 0 0110 3.2zm7.2 6.4a.4.4 0 00-.4.4 6.808 6.808 0 01-6.8 6.8.4.4 0 100 .8 7.609 7.609 0 007.6-7.6.4.4 0 00-.4-.4z"></path>
    </g>
  </symbol>
  <symbol xmlns="http://www.w3.org/2000/svg" viewBox="0 0 39 39" id="right_controller">
    <title>Group 4 Copy</title>
    <g transform="matrix(-1 0 0 1 39 0)" fill="#001D5D" fill-rule="evenodd">
      <circle fill-opacity=".25" cx="19.5" cy="19.5" r="19.5"></circle>
      <path d="M14 19.5l9-4.5v9z"></path>
    </g>
  </symbol>
  <symbol xmlns="http://www.w3.org/2000/svg" viewBox="0 0 22 20" id="Snapchat">
    <title>Shape</title>
    <path d="M10.452.004c-.474 0-1.421.067-2.439.515a5.435 5.435 0 00-1.556 1.028 5.806 5.806 0 00-1.3 1.863c-.476 1.066-.363 2.861-.272 4.304l.03.476a.837.837 0 01-.351.065c-.27 0-.589-.085-.95-.254a.852.852 0 00-.362-.075c-.215 0-.442.064-.64.179-.247.145-.407.35-.45.577-.029.15-.027.447.303.749.182.165.45.318.795.454.09.036.198.07.312.106.395.125.993.314 1.149.68.079.186.045.43-.101.725a7.054 7.054 0 01-1.085 1.686 6.04 6.04 0 01-1.296 1.144 4.775 4.775 0 01-1.82.709.499.499 0 00-.418.52.655.655 0 00.051.216c.103.24.34.441.723.62.47.216 1.171.4 2.086.542.046.088.094.308.128.46.034.16.07.324.122.5.056.189.2.416.573.416.14 0 .302-.032.49-.068.275-.054.65-.127 1.12-.127.26 0 .529.023.8.067.523.087.973.405 1.495.772.763.538 1.627 1.147 2.946 1.147.036 0 .073-.001.108-.004.044.002.098.004.155.004 1.32 0 2.184-.61 2.946-1.147.523-.368.973-.685 1.496-.772a4.92 4.92 0 01.8-.067c.448 0 .803.057 1.12.118.206.04.367.06.49.06.296 0 .496-.148.572-.409.05-.171.087-.332.123-.495.03-.141.08-.368.127-.456.915-.144 1.617-.326 2.086-.544.383-.177.62-.378.722-.615a.636.636 0 00.053-.22.498.498 0 00-.418-.519c-2.852-.469-4.137-3.39-4.19-3.515-.157-.319-.191-.563-.112-.749.156-.365.753-.554 1.148-.68.115-.035.223-.07.312-.105.39-.153.668-.32.851-.508.22-.225.262-.441.26-.582-.007-.342-.269-.645-.685-.794a1.228 1.228 0 00-.465-.088 1.03 1.03 0 00-.431.088c-.334.155-.633.24-.89.253a.806.806 0 01-.294-.065l.026-.413.003-.06c.092-1.444.205-3.241-.272-4.308a5.813 5.813 0 00-1.305-1.868A5.449 5.449 0 0013.31.51 6.227 6.227 0 0010.872 0l-.42.004z" fill="#FFF" fill-rule="evenodd"></path>
  </symbol>
  <symbol xmlns="http://www.w3.org/2000/svg" viewBox="0 0 21 18" id="twitter">
    <title>Shape</title>
    <path d="M18.526 2.846A4.51 4.51 0 0020.42.333a8.355 8.355 0 01-2.736 1.102A4.194 4.194 0 0014.539 0c-2.38 0-4.307 2.035-4.307 4.544 0 .356.036.703.11 1.034-3.58-.19-6.754-1.996-8.88-4.747a4.724 4.724 0 00-.583 2.285c0 1.576.76 2.967 1.917 3.783a4.154 4.154 0 01-1.953-.568v.056c0 2.202 1.484 4.04 3.458 4.455a4.01 4.01 0 01-1.137.16c-.277 0-.548-.027-.81-.08.548 1.804 2.139 3.12 4.025 3.155-1.476 1.219-3.333 1.944-5.351 1.944-.348 0-.692-.02-1.028-.062A11.747 11.747 0 006.604 18c7.926 0 12.257-6.924 12.257-12.929 0-.197-.002-.394-.01-.587A9.006 9.006 0 0021 2.13a8.257 8.257 0 01-2.474.715z" fill="#FFF" fill-rule="evenodd"></path>
  </symbol>
  <symbol xmlns="http://www.w3.org/2000/svg" viewBox="0 0 23 16" id="youtube">
    <title>Shape</title>
    <path d="M22.857 12.073V3.927S22.857 0 18.918 0H3.938S0 0 0 3.927v8.146S0 16 3.938 16h14.98s3.94 0 3.94-3.927m-6.992-4.062l-7.483 4.381V3.63l7.483 4.382" fill="#FFF" fill-rule="evenodd"></path>
  </symbol>
  <symbol xmlns="http://www.w3.org/2000/svg" viewBox="0 0 20 20" id="artists">
    <title>group</title>
    <g fill="#001D5D">
      <path d="M5.6 16.4a.4.4 0 01-.4.4H2.8a.4.4 0 01-.4-.4v-3.6a.8.8 0 00-.8-.8h-.4a.4.4 0 01-.4-.4v-2a3.195 3.195 0 015.813-1.836A3.968 3.968 0 005.6 10.4v6zm12.8-4.8a.4.4 0 01-.4.4h-.4a.8.8 0 00-.8.8v3.6a.4.4 0 01-.4.4H14a.4.4 0 01-.4-.4v-6a3.968 3.968 0 00-1.013-2.636A3.195 3.195 0 0118.4 9.6v2z" fill-opacity=".25"></path>
      <path d="M9.6 5.6a2.4 2.4 0 100-4.8 2.4 2.4 0 000 4.8zm0-4a1.6 1.6 0 110 3.2 1.6 1.6 0 010-3.2zm5.6 3.2a2.4 2.4 0 100-4.8 2.4 2.4 0 000 4.8zm0-4a1.6 1.6 0 110 3.2 1.6 1.6 0 010-3.2zM4 4.8A2.4 2.4 0 104 0a2.4 2.4 0 000 4.8zm0-4A1.6 1.6 0 114 4 1.6 1.6 0 014 .8z"></path>
      <path d="M15.2 5.6a3.982 3.982 0 00-3.198 1.62 3.93 3.93 0 00-4.805 0h.001A3.989 3.989 0 000 9.6v2a1.2 1.2 0 001.2 1.2h.4v3.6a1.2 1.2 0 001.2 1.2h2.4a1.2 1.2 0 001.2-1.2v-2.073c.128.047.263.072.4.073h.4v4.4A1.2 1.2 0 008.4 20h2.4a1.2 1.2 0 001.2-1.2v-4.4h.4c.137-.001.272-.026.4-.073V16.4a1.2 1.2 0 001.2 1.2h2.4a1.2 1.2 0 001.2-1.2v-3.6h.4a1.2 1.2 0 001.2-1.2v-2a4 4 0 00-4-4zM5.6 16.4a.4.4 0 01-.4.4H2.8a.4.4 0 01-.4-.4v-3.6a.8.8 0 00-.8-.8h-.4a.4.4 0 01-.4-.4v-2a3.195 3.195 0 015.813-1.836A3.968 3.968 0 005.6 10.4v6zm6.8-2.8H12a.8.8 0 00-.8.8v4.4a.4.4 0 01-.4.4H8.4a.4.4 0 01-.4-.4v-4.4a.8.8 0 00-.8-.8h-.4a.4.4 0 01-.4-.4v-2.8a3.2 3.2 0 116.4 0v2.8a.4.4 0 01-.4.4zm6-2a.4.4 0 01-.4.4h-.4a.8.8 0 00-.8.8v3.6a.4.4 0 01-.4.4H14a.4.4 0 01-.4-.4v-6a3.968 3.968 0 00-1.013-2.636A3.195 3.195 0 0118.4 9.6v2z"></path>
    </g>
  </symbol>
  <symbol xmlns="http://www.w3.org/2000/svg" viewBox="0 0 21 20" id="concerts">
    <title>events</title>
    <g fill="#001D5D">
      <path fill-opacity=".25" d="M18.298 3v4.25H.426v.85h17.872v9.669H0V20h20V3z"></path>
      <path d="M20.16 1.667h-4.2V.417A.418.418 0 0015.54 0a.418.418 0 00-.42.417v1.25H5.88V.417A.418.418 0 005.46 0a.418.418 0 00-.42.417v1.25H.84A.837.837 0 000 2.5v16.667c0 .46.376.833.84.833h19.32c.464 0 .84-.373.84-.833V2.5a.837.837 0 00-.84-.833zm0 17.5H.84v-12.5h19.32v12.5zM.84 5.833V2.5h19.32v3.333H.84z"></path>
      <path d="M11 9h2v2h-2zm4 0h2v2h-2zM4 13h2v2H4zm4 0h2v2H8z"></path>
    </g>
  </symbol>
  <symbol xmlns="http://www.w3.org/2000/svg" viewBox="0 0 9 6" id="dropdown_triangle">
    <title>Triangle</title>
    <path d="M4.5 6L0 0h9z" fill-rule="evenodd"></path>
  </symbol>
  <symbol xmlns="http://www.w3.org/2000/svg" viewBox="0 0 23 20" id="Home">
    <title>home-a</title>
    <g fill="#001D5D">
      <path d="M16.394 5.682v10.227a.455.455 0 01-.455.455H3.636v2.272c0 .251.204.455.455.455h14.545a.455.455 0 00.455-.455V8.182h.03l-2.727-2.5z" fill-opacity=".25"></path>
      <path d="M22.58 10.119l-10.91-10a.455.455 0 00-.614 0l-10.909 10a.455.455 0 10.615.67l1.965-1.802v9.65c0 .752.61 1.363 1.364 1.363h14.545C19.39 20 20 19.39 20 18.636V8.988l1.965 1.801a.455.455 0 10.615-.67zM9.09 19.091v-5.91c0-.25.204-.454.455-.454h3.637c.25 0 .454.204.454.455v5.909H9.091zm10-10.91v10.455a.455.455 0 01-.454.455h-4.09v-5.91c0-.752-.611-1.363-1.364-1.363H9.545c-.753 0-1.363.61-1.363 1.364v5.909H4.09a.455.455 0 01-.455-.455V8.182h-.03l7.758-7.111 7.757 7.11h-.03z"></path>
    </g>
  </symbol>
  <symbol xmlns="http://www.w3.org/2000/svg" viewBox="0 0 20 20" id="Instagram">
    <title>Shape</title>
    <path d="M10 1.802c2.67 0 2.986.01 4.04.058.976.045 1.505.208 1.858.344.466.182.8.399 1.15.748.35.35.566.684.748 1.15.136.353.3.882.344 1.857.048 1.055.058 1.37.058 4.041 0 2.67-.01 2.986-.058 4.04-.045.976-.208 1.505-.344 1.858-.182.466-.399.8-.748 1.15-.35.35-.684.566-1.15.748-.353.137-.882.3-1.857.344-1.054.048-1.37.058-4.041.058-2.67 0-2.987-.01-4.04-.058-.976-.045-1.505-.207-1.858-.344a3.098 3.098 0 01-1.15-.748 3.098 3.098 0 01-.748-1.15c-.137-.353-.3-.882-.344-1.857-.048-1.055-.058-1.37-.058-4.041 0-2.67.01-2.986.058-4.04.045-.976.207-1.505.344-1.858.182-.466.399-.8.748-1.15.35-.35.684-.566 1.15-.748.353-.136.882-.3 1.857-.344 1.055-.048 1.37-.058 4.041-.058M10 0c2.716 0 3.056.012 4.123.06 1.064.049 1.791.218 2.427.465a4.902 4.902 0 011.772 1.153 4.902 4.902 0 011.153 1.772c.247.636.416 1.363.465 2.427.048 1.067.06 1.407.06 4.123s-.012 3.056-.06 4.123c-.049 1.064-.218 1.791-.465 2.427a4.902 4.902 0 01-1.153 1.772 4.902 4.902 0 01-1.772 1.153c-.636.247-1.363.416-2.427.465-1.067.049-1.407.06-4.123.06s-3.056-.011-4.123-.06c-1.064-.049-1.791-.218-2.427-.465a4.902 4.902 0 01-1.772-1.153A4.902 4.902 0 01.525 16.55c-.247-.636-.416-1.363-.465-2.427C.011 13.056 0 12.716 0 10s.011-3.056.06-4.123C.11 4.813.278 4.086.525 3.45a4.902 4.902 0 011.153-1.772A4.902 4.902 0 013.45.525C4.086.278 4.813.109 5.877.06 6.944.012 7.284 0 10 0zm.02 4.881a5.139 5.139 0 100 10.278 5.139 5.139 0 000-10.278zm0 8.475a3.336 3.336 0 110-6.672 3.336 3.336 0 010 6.672zm6.488-8.713a1.19 1.19 0 10-2.38 0 1.19 1.19 0 002.38 0z" fill="#FFF" fill-rule="evenodd"></path>
  </symbol>
  <symbol xmlns="http://www.w3.org/2000/svg" viewBox="0 0 39 39" id="left_controller">
    <title>Group 4</title>
    <g fill="#001D5D" fill-rule="evenodd">
      <circle fill-opacity=".25" cx="19.5" cy="19.5" r="19.5"></circle>
      <path d="M14 19.5l9-4.5v9z"></path>
    </g>
  </symbol>
  <symbol xmlns="http://www.w3.org/2000/svg" viewBox="0 0 29 42" id="location_pin">
    <title>location-pin</title>
    <path d="M14.28 0C6.393 0 0 6.393 0 14.28c0 8.361 8.372 21.666 12.295 26.741a2.51 2.51 0 003.974.003C20.194 35.963 28.56 22.692 28.56 14.28A14.28 14.28 0 0014.28 0zm0 18.48a5.88 5.88 0 110-11.76 5.88 5.88 0 010 11.76z" fill="#68C242"></path>
  </symbol>
  <symbol xmlns="http://www.w3.org/2000/svg" viewBox="0 0 384.97 384.97" id="menu">
    <path d="M12.03 120.303h360.909c6.641 0 12.03-5.39 12.03-12.03 0-6.641-5.39-12.03-12.03-12.03H12.03c-6.641 0-12.03 5.39-12.03 12.03s5.39 12.03 12.03 12.03zm360.909 60.152H12.03c-6.641 0-12.03 5.39-12.03 12.03s5.39 12.03 12.03 12.03h360.909c6.641 0 12.03-5.39 12.03-12.03s-5.389-12.03-12.03-12.03zm0 84.212H132.333c-6.641 0-12.03 5.39-12.03 12.03 0 6.641 5.39 12.03 12.03 12.03h240.606c6.641 0 12.03-5.39 12.03-12.03.001-6.641-5.389-12.03-12.03-12.03z"></path>
  </symbol>
</svg>